Love for All and Sharing is the first step to solving all the problems of humanity.

Websites I want to share.

 
http://www.shareintl.org/

 
http://www.lightmiddleway.com


Thank you very much

No credit for me...credit to EVERYONE for sharing

 
http://thepiratebay.org/user/raymondhome/

STORY
A serial killer returns to his hometown to stalk seven children who share the same birthday as the date he was allegedly put to rest.

Runtime.......:1h 37mn
Language..........:ENGLISH

Video
ID                               : 0
Format                           : MPEG-4 Visual
Format profile                   : Advanced Simple@L5
Format settings, BVOP            : Yes
Format settings, QPel            : No
Format settings, GMC             : No warppoints
Format settings, Matrix          : Default (H.263)
Muxing mode                      : Packed bitstream
Codec ID                         : XVID
Codec ID/Hint                    : XviD
Duration                         : 1h 37mn
Bit rate                         : 876 Kbps
Width                            : 640 pixels
Height                           : 272 pixels
Display aspect ratio             : 2.35
Frame rate                       : 25.000 fps
Resolution                       : 24 bits
Colorimetry                      : 4:2:0
Scan type                        : Progressive
Bits/(Pixel*Frame)               : 0.201
Stream size                      : 611 MiB (86%)
Writing library                  : XviD 1.1.2 (UTC 2006-11-01)

Audio
ID                               : 1
Format                           : MPEG Audio
Format version                   : Version 1
Format profile                   : Layer 3
Codec ID                         : 55
Codec ID/Hint                    : MP3
Duration                         : 1h 37mn
Bit rate mode                    : Constant
Bit rate                         : 128 Kbps
Channel(s)                       : 2 channels
Sampling rate                    : 44.1 KHz
Resolution                       : 16 bits
Stream size                      : 89.3 MiB (13%)
Alignment                        : Split accross interleaves
Interleave, duration             : 40 ms (1.00 video frame)
Interleave, preload duration     : 500 ms

SOURCES:
VIDEO:My Soul To Take russian cam .....Thanks relizlab
AUDIO:My Soul To Take LU ......................Thanks m8

credit IMAGiNE & to all the people who made it possible for us to share this...especially EVERYONE involve in the production of the movie...IF YOU LIKE IT...BUY IT :)

BIG BIG BIG GREETZ & THANKS:
ALL members & STAFFS of PIRATEBAY, EXTRATORRENT, KINGDOM, IPTORRENTS, DEMONOID & AHASHARE :)
KaOsUSC, Motley Crue, InFeCtiouS, BADASS, W1ck3d1nt3ntz, ceo54, DaRkReAlM, ghostman, karakurachow, megaplay, Emery1337x, SaM, geordieboy1979, timamirrockdude, Noir, Shedevil, bone111, JorgeMontana, BlueLady, UniversalAbsurdity, mc68, TheFalcon007, pardeep333, X, DR67, DiNGiE, xclusive666, pro2kon, EMUworld, wrath, oziman, rubak1, BigPerm1828, skynetcentral, IZON, bluepeas, Dibya9999, Treezluv2draw, pitic, FASAMOO, W1CK3D1NT3Z, GRIND3R, extremezone, MonsterTV, BLaZE, SAFCuk009, Fabreezy, MXMG, Hellb0y, iwanttobelieveinaj, velvetfog, mustaphanaru & many more :)
ALL the awesome people who are SHARING (ALL THE UPLOADERS, THE RIPPERS, THE SCENE GROUPS, ETC, THE WHOLE P2P COMMUNITY, even the CRITICIZERS )
***wish i could list everyone***Thank you very much everyone & i mean EVERYONE :)

*****help what we can with others in need...the world is ONE big family*****

SCREENSHOTS
 
http://imagine.takagari.com/my%20soul/vlcsnap-478626.png
 
http://imagine.takagari.com/my%20soul/vlcsnap-479069.png
 
http://imagine.takagari.com/my%20soul/vlcsnap-478831.png
 
http://imagine.takagari.com/my%20soul/vlcsnap-479334.png

DON'T THANK US...HELP SOMEONE IN NEED :)

MAY YOU & YOUR LOVED ONES ALWAYS BE BLESSED WITH LIGHT, LOVE, JOY, PEACE, GOOD HEALTH & ABUNDANCE :)
 
http://www.imdb.com/title/tt0872230/